<mxfile host="Electron" agent="Mozilla/5.0 (Windows NT 10.0; Win64; x64) AppleWebKit/537.36 (KHTML, like Gecko) draw.io/28.0.4 Chrome/138.0.7204.97 Electron/37.2.1 Safari/537.36" version="28.0.4">
  <diagram name="Page-1" id="8AuxSN08tYG3XVk00_AL">
    <mxGraphModel dx="1678" dy="1046" grid="0" gridSize="10" guides="1" tooltips="1" connect="1" arrows="1" fold="1" page="0" pageScale="1" pageWidth="900" pageHeight="1600" math="0" shadow="0">
      <root>
        <mxCell id="0" />
        <mxCell id="1" parent="0" />
        <mxCell id="cBOj0_BICzx7MoI1pHMi-58" value="" style="edgeStyle=orthogonalEdgeStyle;rounded=0;orthogonalLoop=1;jettySize=auto;html=1;fontFamily=fira code;exitX=0;exitY=0.5;exitDx=0;exitDy=0;" parent="1" source="cBOj0_BICzx7MoI1pHMi-10" edge="1">
          <mxGeometry relative="1" as="geometry">
            <mxPoint x="360" y="1610" as="sourcePoint" />
            <mxPoint x="913" y="1715" as="targetPoint" />
            <Array as="points">
              <mxPoint x="42" y="460" />
              <mxPoint x="42" y="1715" />
              <mxPoint x="869" y="1715" />
              <mxPoint x="888" y="1714" />
            </Array>
          </mxGeometry>
        </mxCell>
        <mxCell id="cBOj0_BICzx7MoI1pHMi-74" value="Spawns" style="edgeLabel;html=1;align=center;verticalAlign=middle;resizable=0;points=[];fontFamily=fira code;" parent="cBOj0_BICzx7MoI1pHMi-58" vertex="1" connectable="0">
          <mxGeometry x="-0.8809" y="-1" relative="1" as="geometry">
            <mxPoint as="offset" />
          </mxGeometry>
        </mxCell>
        <mxCell id="cBOj0_BICzx7MoI1pHMi-1" value="UI Thread" style="swimlane;whiteSpace=wrap;html=1;fontFamily=fira code;fillColor=#36A8FF;gradientColor=none;dashed=1;" parent="1" vertex="1">
          <mxGeometry x="90" y="100" width="270" height="1570" as="geometry">
            <mxRectangle x="90" y="100" width="140" height="30" as="alternateBounds" />
          </mxGeometry>
        </mxCell>
        <mxCell id="cBOj0_BICzx7MoI1pHMi-9" value="Sends&lt;div&gt;User Commands&lt;/div&gt;&lt;div&gt;To&lt;/div&gt;" style="edgeStyle=orthogonalEdgeStyle;rounded=0;orthogonalLoop=1;jettySize=auto;html=1;exitX=0.5;exitY=1;exitDx=0;exitDy=0;entryX=0.5;entryY=0;entryDx=0;entryDy=0;fontFamily=fira code;" parent="cBOj0_BICzx7MoI1pHMi-1" source="cBOj0_BICzx7MoI1pHMi-2" target="cBOj0_BICzx7MoI1pHMi-8" edge="1">
          <mxGeometry relative="1" as="geometry" />
        </mxCell>
        <mxCell id="cBOj0_BICzx7MoI1pHMi-2" value="UI Logic &amp;amp; Event Loop" style="rounded=0;whiteSpace=wrap;html=1;fontFamily=fira code;" parent="cBOj0_BICzx7MoI1pHMi-1" vertex="1">
          <mxGeometry x="25" y="50" width="220" height="60" as="geometry" />
        </mxCell>
        <mxCell id="cBOj0_BICzx7MoI1pHMi-11" style="edgeStyle=orthogonalEdgeStyle;rounded=0;orthogonalLoop=1;jettySize=auto;html=1;exitX=0.5;exitY=1;exitDx=0;exitDy=0;entryX=0.5;entryY=0;entryDx=0;entryDy=0;fontFamily=fira code;" parent="cBOj0_BICzx7MoI1pHMi-1" source="cBOj0_BICzx7MoI1pHMi-8" target="cBOj0_BICzx7MoI1pHMi-10" edge="1">
          <mxGeometry relative="1" as="geometry" />
        </mxCell>
        <mxCell id="cBOj0_BICzx7MoI1pHMi-8" value="Command Queue" style="rounded=1;whiteSpace=wrap;html=1;fontFamily=fira code;" parent="cBOj0_BICzx7MoI1pHMi-1" vertex="1">
          <mxGeometry x="75" y="190" width="120" height="60" as="geometry" />
        </mxCell>
        <mxCell id="cBOj0_BICzx7MoI1pHMi-10" value="EmulatorCore" style="rounded=0;whiteSpace=wrap;html=1;fontFamily=fira code;" parent="cBOj0_BICzx7MoI1pHMi-1" vertex="1">
          <mxGeometry x="25" y="330" width="220" height="60" as="geometry" />
        </mxCell>
        <mxCell id="cBOj0_BICzx7MoI1pHMi-29" style="edgeStyle=orthogonalEdgeStyle;rounded=0;orthogonalLoop=1;jettySize=auto;html=1;exitX=0.5;exitY=1;exitDx=0;exitDy=0;fontFamily=fira code;" parent="cBOj0_BICzx7MoI1pHMi-1" source="cBOj0_BICzx7MoI1pHMi-26" target="cBOj0_BICzx7MoI1pHMi-28" edge="1">
          <mxGeometry relative="1" as="geometry" />
        </mxCell>
        <mxCell id="cBOj0_BICzx7MoI1pHMi-26" value="UI Display Renderer" style="rounded=0;whiteSpace=wrap;html=1;fontFamily=fira code;" parent="cBOj0_BICzx7MoI1pHMi-1" vertex="1">
          <mxGeometry x="25" y="1330" width="220" height="60" as="geometry" />
        </mxCell>
        <mxCell id="cBOj0_BICzx7MoI1pHMi-28" value="Screen/Window" style="rounded=1;whiteSpace=wrap;html=1;fillColor=#838383;shadow=0;textOpacity=50;fontFamily=fira code;" parent="cBOj0_BICzx7MoI1pHMi-1" vertex="1">
          <mxGeometry x="25" y="1470" width="220" height="60" as="geometry" />
        </mxCell>
        <mxCell id="cBOj0_BICzx7MoI1pHMi-12" value="Emulation Worker Thread" style="swimlane;whiteSpace=wrap;html=1;fontFamily=fira code;labelBackgroundColor=none;fillColor=#C37527;dashed=1;" parent="1" vertex="1">
          <mxGeometry x="410" y="520" width="2473" height="1125" as="geometry" />
        </mxCell>
        <mxCell id="cBOj0_BICzx7MoI1pHMi-55" value="Reports&lt;div&gt;Cycles&lt;div&gt;Consumed&lt;/div&gt;&lt;/div&gt;&lt;div&gt;To&lt;/div&gt;" style="edgeStyle=orthogonalEdgeStyle;rounded=0;orthogonalLoop=1;jettySize=auto;html=1;exitX=0.75;exitY=0;exitDx=0;exitDy=0;entryX=0.75;entryY=1;entryDx=0;entryDy=0;fontFamily=fira code;" parent="cBOj0_BICzx7MoI1pHMi-12" source="cBOj0_BICzx7MoI1pHMi-14" target="cBOj0_BICzx7MoI1pHMi-30" edge="1">
          <mxGeometry relative="1" as="geometry" />
        </mxCell>
        <mxCell id="cBOj0_BICzx7MoI1pHMi-56" value="Fetches&lt;div&gt;Instructions/Data&lt;/div&gt;&lt;div&gt;From and Writes&lt;/div&gt;&lt;div&gt;Through&lt;/div&gt;" style="edgeStyle=orthogonalEdgeStyle;rounded=0;orthogonalLoop=1;jettySize=auto;html=1;exitX=0.25;exitY=1;exitDx=0;exitDy=0;entryX=0.25;entryY=0;entryDx=0;entryDy=0;fontFamily=fira code;" parent="cBOj0_BICzx7MoI1pHMi-12" source="cBOj0_BICzx7MoI1pHMi-14" target="cBOj0_BICzx7MoI1pHMi-15" edge="1">
          <mxGeometry relative="1" as="geometry" />
        </mxCell>
        <mxCell id="cBOj0_BICzx7MoI1pHMi-14" value="CPU" style="rounded=0;whiteSpace=wrap;html=1;fontFamily=fira code;strokeColor=#66B2FF;" parent="cBOj0_BICzx7MoI1pHMi-12" vertex="1">
          <mxGeometry x="1380" y="280" width="220" height="60" as="geometry" />
        </mxCell>
        <mxCell id="cBOj0_BICzx7MoI1pHMi-57" value="Sends&lt;div&gt;Interrupts&lt;/div&gt;&lt;div&gt;To&lt;/div&gt;" style="edgeStyle=orthogonalEdgeStyle;rounded=0;orthogonalLoop=1;jettySize=auto;html=1;exitX=0.75;exitY=0;exitDx=0;exitDy=0;entryX=0.75;entryY=1;entryDx=0;entryDy=0;fontFamily=fira code;" parent="cBOj0_BICzx7MoI1pHMi-12" source="cBOj0_BICzx7MoI1pHMi-15" target="cBOj0_BICzx7MoI1pHMi-14" edge="1">
          <mxGeometry relative="1" as="geometry" />
        </mxCell>
        <mxCell id="cBOj0_BICzx7MoI1pHMi-61" style="edgeStyle=orthogonalEdgeStyle;rounded=0;orthogonalLoop=1;jettySize=auto;html=1;exitX=0.5;exitY=1;exitDx=0;exitDy=0;fontFamily=fira code;" parent="cBOj0_BICzx7MoI1pHMi-12" source="cBOj0_BICzx7MoI1pHMi-15" target="cBOj0_BICzx7MoI1pHMi-21" edge="1">
          <mxGeometry relative="1" as="geometry" />
        </mxCell>
        <mxCell id="cBOj0_BICzx7MoI1pHMi-62" style="edgeStyle=orthogonalEdgeStyle;rounded=0;orthogonalLoop=1;jettySize=auto;html=1;exitX=0.5;exitY=1;exitDx=0;exitDy=0;entryX=0.5;entryY=0;entryDx=0;entryDy=0;fontFamily=fira code;" parent="cBOj0_BICzx7MoI1pHMi-12" source="cBOj0_BICzx7MoI1pHMi-15" target="cBOj0_BICzx7MoI1pHMi-16" edge="1">
          <mxGeometry relative="1" as="geometry" />
        </mxCell>
        <mxCell id="cBOj0_BICzx7MoI1pHMi-63" style="edgeStyle=orthogonalEdgeStyle;rounded=0;orthogonalLoop=1;jettySize=auto;html=1;exitX=0.5;exitY=1;exitDx=0;exitDy=0;entryX=0.538;entryY=-0.002;entryDx=0;entryDy=0;fontFamily=fira code;entryPerimeter=0;" parent="cBOj0_BICzx7MoI1pHMi-12" source="cBOj0_BICzx7MoI1pHMi-15" target="cBOj0_BICzx7MoI1pHMi-19" edge="1">
          <mxGeometry relative="1" as="geometry">
            <Array as="points">
              <mxPoint x="1490" y="610" />
              <mxPoint x="239" y="610" />
              <mxPoint x="239" y="680" />
            </Array>
          </mxGeometry>
        </mxCell>
        <mxCell id="cBOj0_BICzx7MoI1pHMi-65" style="edgeStyle=orthogonalEdgeStyle;rounded=0;orthogonalLoop=1;jettySize=auto;html=1;exitX=0.5;exitY=1;exitDx=0;exitDy=0;entryX=0.5;entryY=0;entryDx=0;entryDy=0;fontFamily=fira code;" parent="cBOj0_BICzx7MoI1pHMi-12" source="cBOj0_BICzx7MoI1pHMi-15" target="cBOj0_BICzx7MoI1pHMi-20" edge="1">
          <mxGeometry relative="1" as="geometry" />
        </mxCell>
        <mxCell id="cBOj0_BICzx7MoI1pHMi-68" style="edgeStyle=orthogonalEdgeStyle;rounded=0;orthogonalLoop=1;jettySize=auto;html=1;exitX=0.5;exitY=1;exitDx=0;exitDy=0;entryX=0.557;entryY=0;entryDx=0;entryDy=0;fontFamily=fira code;entryPerimeter=0;" parent="cBOj0_BICzx7MoI1pHMi-12" source="cBOj0_BICzx7MoI1pHMi-15" target="cBOj0_BICzx7MoI1pHMi-18" edge="1">
          <mxGeometry relative="1" as="geometry">
            <Array as="points">
              <mxPoint x="1490" y="610" />
              <mxPoint x="662" y="610" />
              <mxPoint x="662" y="680" />
            </Array>
          </mxGeometry>
        </mxCell>
        <mxCell id="cBOj0_BICzx7MoI1pHMi-69" style="edgeStyle=orthogonalEdgeStyle;rounded=0;orthogonalLoop=1;jettySize=auto;html=1;exitX=0.5;exitY=1;exitDx=0;exitDy=0;fontFamily=fira code;" parent="cBOj0_BICzx7MoI1pHMi-12" source="cBOj0_BICzx7MoI1pHMi-15" target="cBOj0_BICzx7MoI1pHMi-17" edge="1">
          <mxGeometry relative="1" as="geometry">
            <Array as="points">
              <mxPoint x="1490" y="610" />
              <mxPoint x="1082" y="610" />
            </Array>
          </mxGeometry>
        </mxCell>
        <mxCell id="cBOj0_BICzx7MoI1pHMi-15" value="MMU" style="rounded=0;whiteSpace=wrap;html=1;fontFamily=fira code;strokeColor=#66B2FF;" parent="cBOj0_BICzx7MoI1pHMi-12" vertex="1">
          <mxGeometry x="1380" y="480" width="220" height="60" as="geometry" />
        </mxCell>
        <mxCell id="cBOj0_BICzx7MoI1pHMi-54" value="" style="edgeStyle=orthogonalEdgeStyle;rounded=0;orthogonalLoop=1;jettySize=auto;html=1;exitX=0.25;exitY=1;exitDx=0;exitDy=0;entryX=0.25;entryY=0;entryDx=0;entryDy=0;fontFamily=fira code;strokeColor=#FF9999;" parent="cBOj0_BICzx7MoI1pHMi-12" source="cBOj0_BICzx7MoI1pHMi-30" target="cBOj0_BICzx7MoI1pHMi-14" edge="1">
          <mxGeometry relative="1" as="geometry" />
        </mxCell>
        <mxCell id="cBOj0_BICzx7MoI1pHMi-82" style="edgeStyle=orthogonalEdgeStyle;rounded=0;orthogonalLoop=1;jettySize=auto;html=1;exitX=0.25;exitY=1;exitDx=0;exitDy=0;entryX=0.5;entryY=0;entryDx=0;entryDy=0;fontFamily=fira code;strokeColor=#FF9999;" parent="cBOj0_BICzx7MoI1pHMi-12" source="cBOj0_BICzx7MoI1pHMi-30" target="cBOj0_BICzx7MoI1pHMi-19" edge="1">
          <mxGeometry relative="1" as="geometry">
            <Array as="points">
              <mxPoint x="1435" y="247" />
              <mxPoint x="230" y="247" />
            </Array>
          </mxGeometry>
        </mxCell>
        <mxCell id="cBOj0_BICzx7MoI1pHMi-83" style="edgeStyle=orthogonalEdgeStyle;rounded=0;orthogonalLoop=1;jettySize=auto;html=1;exitX=0.25;exitY=1;exitDx=0;exitDy=0;entryX=0.5;entryY=0;entryDx=0;entryDy=0;fontFamily=fira code;strokeColor=#FF9999;" parent="cBOj0_BICzx7MoI1pHMi-12" source="cBOj0_BICzx7MoI1pHMi-30" target="cBOj0_BICzx7MoI1pHMi-18" edge="1">
          <mxGeometry relative="1" as="geometry">
            <Array as="points">
              <mxPoint x="1435" y="247" />
              <mxPoint x="650" y="247" />
            </Array>
          </mxGeometry>
        </mxCell>
        <mxCell id="cBOj0_BICzx7MoI1pHMi-88" style="edgeStyle=orthogonalEdgeStyle;rounded=0;orthogonalLoop=1;jettySize=auto;html=1;exitX=0.25;exitY=1;exitDx=0;exitDy=0;entryX=0.5;entryY=0;entryDx=0;entryDy=0;fontFamily=fira code;strokeColor=#FF9999;" parent="cBOj0_BICzx7MoI1pHMi-12" edge="1">
          <mxGeometry relative="1" as="geometry">
            <mxPoint x="1435" y="138.9999999999999" as="sourcePoint" />
            <mxPoint x="1070" y="679" as="targetPoint" />
            <Array as="points">
              <mxPoint x="1435" y="247" />
              <mxPoint x="1070" y="247" />
            </Array>
          </mxGeometry>
        </mxCell>
        <mxCell id="cBOj0_BICzx7MoI1pHMi-89" style="edgeStyle=orthogonalEdgeStyle;rounded=0;orthogonalLoop=1;jettySize=auto;html=1;exitX=0.25;exitY=1;exitDx=0;exitDy=0;entryX=0;entryY=0.5;entryDx=0;entryDy=0;fontFamily=fira code;strokeColor=#FF9999;" parent="cBOj0_BICzx7MoI1pHMi-12" source="cBOj0_BICzx7MoI1pHMi-30" target="cBOj0_BICzx7MoI1pHMi-15" edge="1">
          <mxGeometry relative="1" as="geometry">
            <Array as="points">
              <mxPoint x="1435" y="247" />
              <mxPoint x="1360" y="247" />
              <mxPoint x="1360" y="510" />
            </Array>
          </mxGeometry>
        </mxCell>
        <mxCell id="cBOj0_BICzx7MoI1pHMi-90" style="edgeStyle=orthogonalEdgeStyle;rounded=0;orthogonalLoop=1;jettySize=auto;html=1;exitX=0.25;exitY=1;exitDx=0;exitDy=0;entryX=0;entryY=0.5;entryDx=0;entryDy=0;fontFamily=fira code;strokeColor=#FF9999;" parent="cBOj0_BICzx7MoI1pHMi-12" edge="1">
          <mxGeometry relative="1" as="geometry">
            <mxPoint x="1435" y="139" as="sourcePoint" />
            <mxPoint x="1380" y="709" as="targetPoint" />
            <Array as="points">
              <mxPoint x="1435" y="247" />
              <mxPoint x="1360" y="247" />
              <mxPoint x="1360" y="709" />
            </Array>
          </mxGeometry>
        </mxCell>
        <mxCell id="cBOj0_BICzx7MoI1pHMi-30" value="Clock" style="rounded=0;whiteSpace=wrap;html=1;fontFamily=fira code;" parent="cBOj0_BICzx7MoI1pHMi-12" vertex="1">
          <mxGeometry x="1380" y="80" width="220" height="60" as="geometry" />
        </mxCell>
        <mxCell id="cBOj0_BICzx7MoI1pHMi-16" value="DMA Controller" style="rounded=0;whiteSpace=wrap;html=1;fontFamily=fira code;strokeColor=#66B2FF;" parent="cBOj0_BICzx7MoI1pHMi-12" vertex="1">
          <mxGeometry x="1380" y="680" width="220" height="60" as="geometry" />
        </mxCell>
        <mxCell id="cBOj0_BICzx7MoI1pHMi-17" value="Timer" style="rounded=0;whiteSpace=wrap;html=1;fontFamily=fira code;" parent="cBOj0_BICzx7MoI1pHMi-12" vertex="1">
          <mxGeometry x="960" y="680" width="220" height="60" as="geometry" />
        </mxCell>
        <mxCell id="cBOj0_BICzx7MoI1pHMi-91" value="Writes&lt;div&gt;Audio&lt;/div&gt;&lt;div&gt;To&lt;/div&gt;" style="edgeStyle=orthogonalEdgeStyle;rounded=0;orthogonalLoop=1;jettySize=auto;html=1;exitX=0.5;exitY=1;exitDx=0;exitDy=0;entryX=0.5;entryY=0;entryDx=0;entryDy=0;fontFamily=fira code;" parent="cBOj0_BICzx7MoI1pHMi-12" source="cBOj0_BICzx7MoI1pHMi-18" target="cBOj0_BICzx7MoI1pHMi-48" edge="1">
          <mxGeometry relative="1" as="geometry" />
        </mxCell>
        <mxCell id="cBOj0_BICzx7MoI1pHMi-18" value="APU" style="rounded=0;whiteSpace=wrap;html=1;fontFamily=fira code;strokeColor=#66B2FF;" parent="cBOj0_BICzx7MoI1pHMi-12" vertex="1">
          <mxGeometry x="540" y="680" width="220" height="60" as="geometry" />
        </mxCell>
        <mxCell id="bVMz4n86yGmdkZkACAk4-2" value="Writes pixels for&lt;div&gt;display to&lt;/div&gt;" style="edgeStyle=orthogonalEdgeStyle;rounded=0;orthogonalLoop=1;jettySize=auto;html=1;exitX=0.5;exitY=1;exitDx=0;exitDy=0;entryX=0.5;entryY=0;entryDx=0;entryDy=0;fontFamily=fira code;" edge="1" parent="cBOj0_BICzx7MoI1pHMi-12" source="cBOj0_BICzx7MoI1pHMi-19" target="bVMz4n86yGmdkZkACAk4-1">
          <mxGeometry relative="1" as="geometry" />
        </mxCell>
        <mxCell id="cBOj0_BICzx7MoI1pHMi-19" value="PPU" style="rounded=0;whiteSpace=wrap;html=1;fontFamily=fira code;strokeColor=#66B2FF;" parent="cBOj0_BICzx7MoI1pHMi-12" vertex="1">
          <mxGeometry x="120" y="680" width="220" height="60" as="geometry" />
        </mxCell>
        <mxCell id="cBOj0_BICzx7MoI1pHMi-67" value="Reads state of" style="edgeStyle=orthogonalEdgeStyle;rounded=0;orthogonalLoop=1;jettySize=auto;html=1;exitX=0.5;exitY=1;exitDx=0;exitDy=0;entryX=0.5;entryY=0;entryDx=0;entryDy=0;fontFamily=fira code;" parent="cBOj0_BICzx7MoI1pHMi-12" source="cBOj0_BICzx7MoI1pHMi-20" target="cBOj0_BICzx7MoI1pHMi-50" edge="1">
          <mxGeometry relative="1" as="geometry" />
        </mxCell>
        <mxCell id="cBOj0_BICzx7MoI1pHMi-20" value="Input Interface" style="rounded=0;whiteSpace=wrap;html=1;fontFamily=fira code;" parent="cBOj0_BICzx7MoI1pHMi-12" vertex="1">
          <mxGeometry x="1800" y="680" width="220" height="60" as="geometry" />
        </mxCell>
        <mxCell id="cBOj0_BICzx7MoI1pHMi-21" value="Catridge Controller" style="rounded=0;whiteSpace=wrap;html=1;fontFamily=fira code;" parent="cBOj0_BICzx7MoI1pHMi-12" vertex="1">
          <mxGeometry x="2220" y="680" width="220" height="60" as="geometry" />
        </mxCell>
        <mxCell id="cBOj0_BICzx7MoI1pHMi-48" value="Audio Sample Queue" style="rounded=1;whiteSpace=wrap;html=1;fontFamily=fira code;" parent="cBOj0_BICzx7MoI1pHMi-12" vertex="1">
          <mxGeometry x="590" y="860" width="120" height="60" as="geometry" />
        </mxCell>
        <mxCell id="cBOj0_BICzx7MoI1pHMi-50" value="Joypad State" style="rounded=1;whiteSpace=wrap;html=1;fontFamily=fira code;" parent="cBOj0_BICzx7MoI1pHMi-12" vertex="1">
          <mxGeometry x="1850" y="860" width="120" height="60" as="geometry" />
        </mxCell>
        <mxCell id="cBOj0_BICzx7MoI1pHMi-84" value="&#xa;&lt;span style=&quot;color: rgb(255, 255, 255); font-size: 11px; font-style: normal; font-variant-ligatures: normal; font-variant-caps: normal; font-weight: 400; letter-spacing: normal; orphans: 2; text-align: center; text-indent: 0px; text-transform: none; widows: 2; word-spacing: 0px; -webkit-text-stroke-width: 0px; white-space: nowrap; background-color: rgb(18, 18, 18); text-decoration-thickness: initial; text-decoration-style: initial; text-decoration-color: initial; float: none; display: inline !important;&quot;&gt;Routes reads/writes&lt;/span&gt;&lt;div style=&quot;forced-color-adjust: none; color: rgb(255, 255, 255); font-size: 11px; font-style: normal; font-variant-ligatures: normal; font-variant-caps: normal; font-weight: 400; letter-spacing: normal; orphans: 2; text-align: center; text-indent: 0px; text-transform: none; widows: 2; word-spacing: 0px; -webkit-text-stroke-width: 0px; white-space: nowrap; text-decoration-thickness: initial; text-decoration-style: initial; text-decoration-color: initial; box-shadow: none !important;&quot;&gt;to/from&lt;/div&gt;&#xa;&#xa;" style="text;html=1;align=center;verticalAlign=middle;whiteSpace=wrap;rounded=0;fontFamily=fira code;" parent="cBOj0_BICzx7MoI1pHMi-12" vertex="1">
          <mxGeometry x="1457" y="573" width="206" height="51" as="geometry" />
        </mxCell>
        <mxCell id="cBOj0_BICzx7MoI1pHMi-86" value="&lt;br&gt;&lt;span style=&quot;color: rgb(255, 255, 255); font-size: 11px; font-style: normal; font-variant-ligatures: normal; font-variant-caps: normal; font-weight: 400; letter-spacing: normal; orphans: 2; text-align: center; text-indent: 0px; text-transform: none; widows: 2; word-spacing: 0px; -webkit-text-stroke-width: 0px; white-space: nowrap; background-color: rgb(18, 18, 18); text-decoration-thickness: initial; text-decoration-style: initial; text-decoration-color: initial; float: none; display: inline !important;&quot;&gt;Provides&lt;/span&gt;&lt;div style=&quot;forced-color-adjust: none; color: rgb(255, 255, 255); font-size: 11px; font-style: normal; font-variant-ligatures: normal; font-variant-caps: normal; font-weight: 400; letter-spacing: normal; orphans: 2; text-align: center; text-indent: 0px; text-transform: none; widows: 2; word-spacing: 0px; -webkit-text-stroke-width: 0px; white-space: nowrap; text-decoration-thickness: initial; text-decoration-style: initial; text-decoration-color: initial; box-shadow: none !important;&quot;&gt;Cycles&lt;/div&gt;&lt;div style=&quot;forced-color-adjust: none; color: rgb(255, 255, 255); font-size: 11px; font-style: normal; font-variant-ligatures: normal; font-variant-caps: normal; font-weight: 400; letter-spacing: normal; orphans: 2; text-align: center; text-indent: 0px; text-transform: none; widows: 2; word-spacing: 0px; -webkit-text-stroke-width: 0px; white-space: nowrap; text-decoration-thickness: initial; text-decoration-style: initial; text-decoration-color: initial; box-shadow: none !important;&quot;&gt;To&lt;/div&gt;&lt;div&gt;&lt;br&gt;&lt;/div&gt;" style="text;html=1;align=center;verticalAlign=middle;whiteSpace=wrap;rounded=0;fontFamily=fira code;" parent="cBOj0_BICzx7MoI1pHMi-12" vertex="1">
          <mxGeometry x="1376" y="168" width="60" height="30" as="geometry" />
        </mxCell>
        <mxCell id="bVMz4n86yGmdkZkACAk4-5" style="edgeStyle=orthogonalEdgeStyle;rounded=0;orthogonalLoop=1;jettySize=auto;html=1;exitX=0.5;exitY=1;exitDx=0;exitDy=0;fontFamily=fira code;" edge="1" parent="cBOj0_BICzx7MoI1pHMi-12" source="bVMz4n86yGmdkZkACAk4-1" target="bVMz4n86yGmdkZkACAk4-4">
          <mxGeometry relative="1" as="geometry" />
        </mxCell>
        <mxCell id="bVMz4n86yGmdkZkACAk4-1" value="Frame Buffer" style="rounded=1;whiteSpace=wrap;html=1;fontFamily=fira code;" vertex="1" parent="cBOj0_BICzx7MoI1pHMi-12">
          <mxGeometry x="170" y="860" width="120" height="60" as="geometry" />
        </mxCell>
        <mxCell id="bVMz4n86yGmdkZkACAk4-4" value="Game Display Renderer" style="rounded=0;whiteSpace=wrap;html=1;fontFamily=fira code;" vertex="1" parent="cBOj0_BICzx7MoI1pHMi-12">
          <mxGeometry x="120" y="1000" width="220" height="60" as="geometry" />
        </mxCell>
        <mxCell id="cBOj0_BICzx7MoI1pHMi-51" value="Audio Output Thread" style="swimlane;whiteSpace=wrap;html=1;fillColor=#CC00CC;fontFamily=fira code;dashed=1;" parent="1" vertex="1">
          <mxGeometry x="916" y="1703" width="290" height="300" as="geometry" />
        </mxCell>
        <mxCell id="cBOj0_BICzx7MoI1pHMi-52" value="Audio Interface" style="rounded=0;whiteSpace=wrap;html=1;fontFamily=fira code;" parent="cBOj0_BICzx7MoI1pHMi-51" vertex="1">
          <mxGeometry x="35" y="60" width="220" height="60" as="geometry" />
        </mxCell>
        <mxCell id="cBOj0_BICzx7MoI1pHMi-53" value="Speaker/Audio Device" style="rounded=1;whiteSpace=wrap;html=1;fillColor=#838383;shadow=0;textOpacity=50;fontFamily=fira code;" parent="cBOj0_BICzx7MoI1pHMi-51" vertex="1">
          <mxGeometry x="35" y="200" width="220" height="60" as="geometry" />
        </mxCell>
        <mxCell id="cBOj0_BICzx7MoI1pHMi-59" value="Spawns" style="edgeStyle=orthogonalEdgeStyle;rounded=0;orthogonalLoop=1;jettySize=auto;html=1;exitX=1;exitY=0.5;exitDx=0;exitDy=0;entryX=0.033;entryY=-0.001;entryDx=0;entryDy=0;entryPerimeter=0;fontFamily=fira code;" parent="1" source="cBOj0_BICzx7MoI1pHMi-10" target="cBOj0_BICzx7MoI1pHMi-12" edge="1">
          <mxGeometry relative="1" as="geometry" />
        </mxCell>
        <mxCell id="cBOj0_BICzx7MoI1pHMi-92" value="" style="edgeStyle=orthogonalEdgeStyle;rounded=0;orthogonalLoop=1;jettySize=auto;html=1;exitX=0.5;exitY=0;exitDx=0;exitDy=0;entryX=0.5;entryY=1;entryDx=0;entryDy=0;fontFamily=fira code;" parent="1" source="cBOj0_BICzx7MoI1pHMi-52" target="cBOj0_BICzx7MoI1pHMi-48" edge="1">
          <mxGeometry relative="1" as="geometry" />
        </mxCell>
        <mxCell id="cBOj0_BICzx7MoI1pHMi-93" value="&lt;span style=&quot;&quot;&gt;Reads&lt;/span&gt;&lt;div style=&quot;&quot;&gt;Audio&lt;/div&gt;&lt;div style=&quot;&quot;&gt;From&lt;/div&gt;" style="edgeLabel;html=1;align=center;verticalAlign=middle;resizable=0;points=[];fontFamily=fira code;" parent="cBOj0_BICzx7MoI1pHMi-92" vertex="1" connectable="0">
          <mxGeometry x="0.291" relative="1" as="geometry">
            <mxPoint as="offset" />
          </mxGeometry>
        </mxCell>
        <mxCell id="bVMz4n86yGmdkZkACAk4-6" style="edgeStyle=orthogonalEdgeStyle;rounded=0;orthogonalLoop=1;jettySize=auto;html=1;exitX=0.5;exitY=1;exitDx=0;exitDy=0;fontFamily=fira code;" edge="1" parent="1" source="bVMz4n86yGmdkZkACAk4-4" target="cBOj0_BICzx7MoI1pHMi-28">
          <mxGeometry relative="1" as="geometry" />
        </mxCell>
        <mxCell id="bVMz4n86yGmdkZkACAk4-7" value="We may not implement this with a separate thread for audio output buffering. We might run into sync issues" style="text;html=1;align=center;verticalAlign=middle;whiteSpace=wrap;rounded=0;fontFamily=fira code;" vertex="1" parent="1">
          <mxGeometry x="1242" y="1808" width="228" height="90" as="geometry" />
        </mxCell>
      </root>
    </mxGraphModel>
  </diagram>
</mxfile>
